# xmcd CD database file
#
# Track frame offsets:
#	150
#	27649
#	56090
#	81410
#	110455
#	146555
#	174865
#	202993
#	225114
#
# Disc length: 3426 seconds
#
# Revision: 0
# Processed by: cddbd v1.5.1PL0 Copyright (c) Steve Scherf et al.
# Submitted via: CDex 1.51
#
DISCID=700d6009
DTITLE=Kitaro - World Of Kita[Vol06][Breezing Universe]
DYEAR=2000
DGENRE=New Age
TTITLE0=Earth Born
TTITLE1=Aqua
TTITLE2=Stream
TTITLE3=Voice Of The Wind
TTITLE4=A Passage Of Life
TTITLE5=Harmony Of The Forest
TTITLE6=Howling Thunder
TTITLE7=Symphony Of The Forest
TTITLE8=Song For Peace
EXTD=YEAR: 2000
EXTT0=
EXTT1=
EXTT2=
EXTT3=
EXTT4=
EXTT5=
EXTT6=
EXTT7=
EXTT8=
PLAYORDER=
